<mxfile host="app.diagrams.net" modified="2023-04-09T14:05:59.833Z" agent="5.0 (Macintosh; Intel Mac OS X 10_15_7) AppleWebKit/605.1.15 (KHTML, like Gecko) Version/15.1 Safari/605.1.15" etag="vJlMRC_KehYOyiOOPLH-" version="21.0.8" type="github">
  <diagram name="Page-1" id="e7e014a7-5840-1c2e-5031-d8a46d1fe8dd">
    <mxGraphModel dx="1060" dy="719" grid="1" gridSize="10" guides="1" tooltips="1" connect="1" arrows="1" fold="1" page="1" pageScale="1" pageWidth="1169" pageHeight="826" background="none" math="0" shadow="0">
      <root>
        <mxCell id="0" />
        <mxCell id="1" parent="0" />
        <mxCell id="2" value="Doctor" style="swimlane;whiteSpace=wrap" parent="1" vertex="1">
          <mxGeometry x="340" y="100" width="280" height="640" as="geometry" />
        </mxCell>
        <mxCell id="5" value="" style="ellipse;shape=startState;fillColor=#000000;strokeColor=#ff0000;" parent="2" vertex="1">
          <mxGeometry x="100" y="40" width="30" height="30" as="geometry" />
        </mxCell>
        <mxCell id="fOShaCHQV18tKvdpU2JM-44" value="Find Patient" style="rounded=1;whiteSpace=wrap;html=1;" vertex="1" parent="2">
          <mxGeometry x="67.5" y="112" width="95" height="28" as="geometry" />
        </mxCell>
        <mxCell id="fOShaCHQV18tKvdpU2JM-46" value="" style="endArrow=open;endFill=1;endSize=12;html=1;rounded=0;exitX=0.5;exitY=1;exitDx=0;exitDy=0;" edge="1" parent="2" source="5" target="fOShaCHQV18tKvdpU2JM-44">
          <mxGeometry width="160" relative="1" as="geometry">
            <mxPoint x="180" y="145" as="sourcePoint" />
            <mxPoint x="405.5" y="143" as="targetPoint" />
          </mxGeometry>
        </mxCell>
        <mxCell id="fOShaCHQV18tKvdpU2JM-63" value="" style="line;strokeWidth=6;fillColor=none;align=left;verticalAlign=middle;spacingTop=-1;spacingLeft=3;spacingRight=3;rotatable=0;labelPosition=right;points=[];portConstraint=eastwest;strokeColor=inherit;" vertex="1" parent="2">
          <mxGeometry x="40" y="282" width="160" height="3" as="geometry" />
        </mxCell>
        <mxCell id="fOShaCHQV18tKvdpU2JM-64" value="" style="endArrow=open;endFill=1;endSize=12;html=1;rounded=0;exitX=0.092;exitY=0.874;exitDx=0;exitDy=0;exitPerimeter=0;entryX=0.5;entryY=0;entryDx=0;entryDy=0;" edge="1" parent="2" source="fOShaCHQV18tKvdpU2JM-63" target="fOShaCHQV18tKvdpU2JM-66">
          <mxGeometry width="160" relative="1" as="geometry">
            <mxPoint x="75.5" y="285" as="sourcePoint" />
            <mxPoint x="75.5" y="327" as="targetPoint" />
          </mxGeometry>
        </mxCell>
        <mxCell id="fOShaCHQV18tKvdpU2JM-65" value="" style="endArrow=open;endFill=1;endSize=12;html=1;rounded=0;entryX=0.5;entryY=0;entryDx=0;entryDy=0;" edge="1" parent="2" target="fOShaCHQV18tKvdpU2JM-69">
          <mxGeometry width="160" relative="1" as="geometry">
            <mxPoint x="175.5" y="282" as="sourcePoint" />
            <mxPoint x="155.5" y="327" as="targetPoint" />
          </mxGeometry>
        </mxCell>
        <mxCell id="fOShaCHQV18tKvdpU2JM-66" value="Check patient info" style="rounded=1;whiteSpace=wrap;html=1;" vertex="1" parent="2">
          <mxGeometry x="5.5" y="332" width="99.75" height="38" as="geometry" />
        </mxCell>
        <mxCell id="fOShaCHQV18tKvdpU2JM-69" value="Update patient info" style="rounded=1;whiteSpace=wrap;html=1;" vertex="1" parent="2">
          <mxGeometry x="125.5" y="332" width="99.75" height="38" as="geometry" />
        </mxCell>
        <mxCell id="fOShaCHQV18tKvdpU2JM-81" value="" style="edgeStyle=segmentEdgeStyle;endArrow=classic;html=1;curved=0;rounded=0;endSize=8;startSize=8;sourcePerimeterSpacing=0;targetPerimeterSpacing=0;exitX=0.5;exitY=1;exitDx=0;exitDy=0;entryX=0.057;entryY=0.381;entryDx=0;entryDy=0;entryPerimeter=0;" edge="1" parent="2" target="fOShaCHQV18tKvdpU2JM-70">
          <mxGeometry width="100" relative="1" as="geometry">
            <mxPoint x="55" y="370" as="sourcePoint" />
            <mxPoint x="350" y="480" as="targetPoint" />
            <Array as="points">
              <mxPoint x="55" y="480" />
              <mxPoint x="349" y="480" />
            </Array>
          </mxGeometry>
        </mxCell>
        <mxCell id="3" value="Patient System" style="swimlane;whiteSpace=wrap" parent="1" vertex="1">
          <mxGeometry x="620" y="100" width="280" height="640" as="geometry" />
        </mxCell>
        <mxCell id="fOShaCHQV18tKvdpU2JM-42" value="Product found" style="rhombus;whiteSpace=wrap;html=1;" vertex="1" parent="3">
          <mxGeometry x="103.13" y="112" width="74.5" height="45" as="geometry" />
        </mxCell>
        <mxCell id="fOShaCHQV18tKvdpU2JM-48" value="Error" style="rounded=1;whiteSpace=wrap;html=1;" vertex="1" parent="3">
          <mxGeometry x="90.5" y="182" width="99.75" height="38" as="geometry" />
        </mxCell>
        <mxCell id="fOShaCHQV18tKvdpU2JM-49" value="" style="endArrow=open;endFill=1;endSize=12;html=1;rounded=0;exitX=0.5;exitY=1;exitDx=0;exitDy=0;entryX=0.5;entryY=0;entryDx=0;entryDy=0;" edge="1" parent="3" source="fOShaCHQV18tKvdpU2JM-42" target="fOShaCHQV18tKvdpU2JM-48">
          <mxGeometry width="160" relative="1" as="geometry">
            <mxPoint x="-100" y="145" as="sourcePoint" />
            <mxPoint x="125.5" y="143" as="targetPoint" />
          </mxGeometry>
        </mxCell>
        <mxCell id="fOShaCHQV18tKvdpU2JM-51" value="Enter to patient personal page" style="rounded=1;whiteSpace=wrap;html=1;" vertex="1" parent="3">
          <mxGeometry x="165" y="247" width="100.5" height="38" as="geometry" />
        </mxCell>
        <mxCell id="fOShaCHQV18tKvdpU2JM-60" value="" style="edgeStyle=segmentEdgeStyle;endArrow=classic;html=1;curved=0;rounded=0;endSize=8;startSize=8;sourcePerimeterSpacing=0;targetPerimeterSpacing=0;exitX=0;exitY=0.5;exitDx=0;exitDy=0;" edge="1" parent="3" source="fOShaCHQV18tKvdpU2JM-51">
          <mxGeometry width="100" relative="1" as="geometry">
            <mxPoint x="175.3699999999999" y="335.5" as="sourcePoint" />
            <mxPoint x="-163.5" y="282" as="targetPoint" />
            <Array as="points">
              <mxPoint x="-163" y="266" />
            </Array>
          </mxGeometry>
        </mxCell>
        <mxCell id="fOShaCHQV18tKvdpU2JM-70" value="" style="line;strokeWidth=6;fillColor=none;align=left;verticalAlign=middle;spacingTop=-1;spacingLeft=3;spacingRight=3;rotatable=0;labelPosition=right;points=[];portConstraint=eastwest;strokeColor=inherit;" vertex="1" parent="3">
          <mxGeometry x="60" y="540" width="160" height="3" as="geometry" />
        </mxCell>
        <mxCell id="fOShaCHQV18tKvdpU2JM-76" value="" style="ellipse;html=1;shape=endState;fillColor=#000000;strokeColor=#ff0000;" vertex="1" parent="3">
          <mxGeometry x="135" y="590" width="30" height="30" as="geometry" />
        </mxCell>
        <mxCell id="fOShaCHQV18tKvdpU2JM-75" value="" style="endArrow=classic;html=1;rounded=0;entryX=0.5;entryY=0;entryDx=0;entryDy=0;" edge="1" parent="3" target="fOShaCHQV18tKvdpU2JM-76">
          <mxGeometry width="50" height="50" relative="1" as="geometry">
            <mxPoint x="150" y="540" as="sourcePoint" />
            <mxPoint x="-165" y="590" as="targetPoint" />
          </mxGeometry>
        </mxCell>
        <mxCell id="fOShaCHQV18tKvdpU2JM-82" value="Check update" style="rhombus;whiteSpace=wrap;html=1;" vertex="1" parent="3">
          <mxGeometry x="95.88" y="400" width="94.37" height="45" as="geometry" />
        </mxCell>
        <mxCell id="fOShaCHQV18tKvdpU2JM-84" value="" style="endArrow=open;endFill=1;endSize=12;html=1;rounded=0;exitX=0.5;exitY=1;exitDx=0;exitDy=0;" edge="1" parent="3" source="fOShaCHQV18tKvdpU2JM-82">
          <mxGeometry width="160" relative="1" as="geometry">
            <mxPoint x="150" y="167" as="sourcePoint" />
            <mxPoint x="143" y="540" as="targetPoint" />
          </mxGeometry>
        </mxCell>
        <mxCell id="fOShaCHQV18tKvdpU2JM-85" value="Yes" style="text;html=1;strokeColor=none;fillColor=none;align=center;verticalAlign=middle;whiteSpace=wrap;rounded=0;" vertex="1" parent="3">
          <mxGeometry x="130.25" y="480" width="60" height="30" as="geometry" />
        </mxCell>
        <mxCell id="fOShaCHQV18tKvdpU2JM-86" value="" style="endArrow=open;endFill=1;endSize=12;html=1;rounded=0;entryX=0.25;entryY=1;entryDx=0;entryDy=0;" edge="1" parent="3" target="fOShaCHQV18tKvdpU2JM-48">
          <mxGeometry width="160" relative="1" as="geometry">
            <mxPoint x="115" y="410" as="sourcePoint" />
            <mxPoint x="153" y="550" as="targetPoint" />
          </mxGeometry>
        </mxCell>
        <mxCell id="fOShaCHQV18tKvdpU2JM-87" value="No" style="text;html=1;strokeColor=none;fillColor=none;align=center;verticalAlign=middle;whiteSpace=wrap;rounded=0;" vertex="1" parent="3">
          <mxGeometry x="103.13" y="370" width="60" height="30" as="geometry" />
        </mxCell>
        <mxCell id="fOShaCHQV18tKvdpU2JM-90" value="" style="edgeStyle=segmentEdgeStyle;endArrow=classic;html=1;curved=0;rounded=0;endSize=8;startSize=8;sourcePerimeterSpacing=0;targetPerimeterSpacing=0;exitX=1;exitY=0.5;exitDx=0;exitDy=0;entryX=0.5;entryY=0;entryDx=0;entryDy=0;" edge="1" parent="3" source="fOShaCHQV18tKvdpU2JM-42" target="fOShaCHQV18tKvdpU2JM-51">
          <mxGeometry width="100" relative="1" as="geometry">
            <mxPoint x="-95" y="380" as="sourcePoint" />
            <mxPoint x="230" y="430" as="targetPoint" />
            <Array as="points">
              <mxPoint x="215" y="135" />
            </Array>
          </mxGeometry>
        </mxCell>
        <mxCell id="fOShaCHQV18tKvdpU2JM-91" value="Yes" style="text;html=1;align=center;verticalAlign=middle;resizable=0;points=[];autosize=1;strokeColor=none;fillColor=none;" vertex="1" parent="3">
          <mxGeometry x="175" y="112" width="40" height="30" as="geometry" />
        </mxCell>
        <mxCell id="fOShaCHQV18tKvdpU2JM-93" value="No" style="text;html=1;align=center;verticalAlign=middle;resizable=0;points=[];autosize=1;strokeColor=none;fillColor=none;" vertex="1" parent="3">
          <mxGeometry x="103.13" y="152" width="40" height="30" as="geometry" />
        </mxCell>
        <mxCell id="fOShaCHQV18tKvdpU2JM-41" value="" style="endArrow=open;endFill=1;endSize=12;html=1;rounded=0;exitX=1;exitY=0.75;exitDx=0;exitDy=0;" edge="1" parent="1" source="fOShaCHQV18tKvdpU2JM-44" target="fOShaCHQV18tKvdpU2JM-42">
          <mxGeometry width="160" relative="1" as="geometry">
            <mxPoint x="515.5" y="232" as="sourcePoint" />
            <mxPoint x="655.5" y="235" as="targetPoint" />
          </mxGeometry>
        </mxCell>
        <mxCell id="fOShaCHQV18tKvdpU2JM-83" value="" style="edgeStyle=segmentEdgeStyle;endArrow=classic;html=1;curved=0;rounded=0;endSize=8;startSize=8;sourcePerimeterSpacing=0;targetPerimeterSpacing=0;exitX=0.5;exitY=1;exitDx=0;exitDy=0;entryX=0;entryY=0.5;entryDx=0;entryDy=0;" edge="1" parent="1" source="fOShaCHQV18tKvdpU2JM-69" target="fOShaCHQV18tKvdpU2JM-82">
          <mxGeometry width="100" relative="1" as="geometry">
            <mxPoint x="405" y="480" as="sourcePoint" />
            <mxPoint x="699" y="651" as="targetPoint" />
            <Array as="points">
              <mxPoint x="515" y="523" />
              <mxPoint x="699" y="523" />
            </Array>
          </mxGeometry>
        </mxCell>
        <mxCell id="fOShaCHQV18tKvdpU2JM-54" value="" style="edgeStyle=segmentEdgeStyle;endArrow=classic;html=1;curved=0;rounded=0;endSize=8;startSize=8;sourcePerimeterSpacing=0;targetPerimeterSpacing=0;exitX=0;exitY=0.5;exitDx=0;exitDy=0;entryX=0.5;entryY=1;entryDx=0;entryDy=0;" edge="1" parent="1" source="fOShaCHQV18tKvdpU2JM-48" target="fOShaCHQV18tKvdpU2JM-44">
          <mxGeometry width="100" relative="1" as="geometry">
            <mxPoint x="785.5" y="332" as="sourcePoint" />
            <mxPoint x="885.5" y="372" as="targetPoint" />
            <Array as="points">
              <mxPoint x="455" y="301" />
            </Array>
          </mxGeometry>
        </mxCell>
      </root>
    </mxGraphModel>
  </diagram>
</mxfile>
